<?xml version="1.0" encoding="UTF-8" standalone="no"?>
<svg id="chromecodeLogoOnlyTextRoot" xmlns:svg="http://www.w3.org/2000/svg" xmlns="http://www.w3.org/2000/svg" version="1.1" viewBox="0 0 132.22092 16.042499">
    <path style="fill:#ffffff;fill-opacity:1;stroke:none" d="m 6.21,16.0425 q -1.3275,0 -2.4525,-0.3825 -1.125,-0.405 -1.98,-1.1475 Q 0.945,13.77 0.4725,12.69 0,11.5875 0,10.192499 0,8.7974994 0.5175,7.7174994 q 0.54,-1.1025 1.4175,-1.845 0.9,-0.7425 2.07,-1.125 1.17,-0.405 2.4525,-0.405 1.3274995,0 2.3849995,0.4275 1.08,0.4275 1.8000005,1.08 l -1.5300005,2.0475 q -1.2375,-0.8775 -2.4749995,-0.8775 -1.44,0 -2.34,0.855 -0.9,0.855 -0.9,2.3174996 0,1.462501 0.855,2.317501 0.8775,0.855 2.2725,0.855 0.8775,0 1.5974995,-0.315 0.7425,-0.315 1.35,-0.7425 L 10.8,14.4 Q 9.7874995,15.255 8.5724995,15.66 7.3575,16.0425 6.21,16.0425 Z"/>
    <path style="fill:#ffffff;fill-opacity:1;stroke:none" d="m 13.603711,15.7725 0,-15.77250061957774 3.3075,0 0,3.87000001957774 -0.18,2.1375 0.0675,0 q 0.63,-0.6525 1.53,-1.1475 0.9,-0.5175 2.182501,-0.5175 1.890001,0 2.745,1.215 0.877501,1.215 0.877501,3.33 l 0,6.8850006 -3.307501,0 0,-6.4575006 q 0,-1.125 -0.36,-1.6425 -0.36,-0.5175 -1.2825,-0.5175 -0.675001,0 -1.192501,0.2925 -0.494999,0.2925 -1.079999,0.8775 l 0,7.4475006 -3.3075,0 z"/>
    <path style="fill:#ffffff;fill-opacity:1;stroke:none" d="m 28.084923,15.7725 0,-11.1600006 2.7,0 0.27,2.43 0.0675,0 q 0.8325,-1.3725 2.0025,-2.025 1.17,-0.675 2.520001,-0.675 0.7425,0 1.1925,0.1125 0.4725,0.1125 0.9675,0.3375 l -0.675,2.7675 q -0.5175,-0.1575 -0.945,-0.225 -0.405,-0.09 -1.035001,-0.09 -1.035,0 -2.0475,0.6075 -0.99,0.6075 -1.71,2.115 l 0,5.8050006 -3.3075,0 z"/>
    <path style="fill:#ffffff;fill-opacity:1;stroke:none" d="m 45.716135,16.0425 q -1.1025,0 -2.1375,-0.3825 -1.0125,-0.405 -1.8225,-1.1475 -0.7875,-0.7425 -1.26,-1.8225 -0.472499,-1.1025 -0.472499,-2.497501 0,-1.3949996 0.472499,-2.4749996 0.4725,-1.1025 1.26,-1.845 0.810001,-0.7425 1.8225,-1.125 1.035,-0.405 2.1375,-0.405 1.1025,0 2.115001,0.405 1.034999,0.3825 1.822499,1.125 0.810001,0.7425 1.282502,1.845 0.472499,1.08 0.472499,2.4749996 0,1.395001 -0.472499,2.497501 -0.472501,1.08 -1.282501,1.8225 -0.7875,0.7425 -1.8225,1.1475 -1.0125,0.3825 -2.115,0.3825 z m 0,-2.6775 q 1.1475,0 1.71,-0.855 0.585001,-0.855 0.585001,-2.317501 0,-1.4624996 -0.585001,-2.3174996 -0.5625,-0.855 -1.71,-0.855 -1.1475,0 -1.7325,0.855 -0.5625,0.855 -0.5625,2.3174996 0,1.462501 0.5625,2.317501 0.585,0.855 1.7325,0.855 z"/>
    <path style="fill:#ffffff;fill-opacity:1;stroke:none" d="m 53.244847,15.7725 0,-11.1600006 2.4975,0 0.225,1.3725 0.09,0 q 0.315,-0.675 0.8775,-1.1475 0.5625,-0.495 1.53,-0.495 0.72,0 1.215,0.4725 0.5175,0.45 0.72,1.35 0.315,-0.765 0.9,-1.2825 0.6075,-0.54 1.575,-0.54 1.215,0 1.845,0.9675 0.6525,0.945 0.6525,2.6325 l 0,7.8300006 -3.150001,0 0,-7.6050006 q 0,-0.5175 -0.135,-0.765 -0.135,-0.2475 -0.4725,-0.2475 -0.315,0 -0.54,0.27 -0.225,0.27 -0.472499,0.81 l 0,7.5375006 -2.5875,0 0,-7.6050006 q 0,-1.0125 -0.63,-1.0125 -0.315,0 -0.54,0.27 -0.225,0.27 -0.450001,0.81 l 0,7.5375006 -3.149999,0 z"/>
    <path style="fill:#ffffff;fill-opacity:1;stroke:none" d="m 73.373557,16.0425 q -1.305001,0 -2.4525,-0.3825 -1.125,-0.405 -1.9575,-1.1475 -0.8325,-0.7425 -1.305,-1.8225 -0.4725,-1.1025 -0.4725,-2.497501 0,-1.3724996 0.4725,-2.4524996 0.495,-1.1025 1.305,-1.845 0.81,-0.765 1.845,-1.1475 1.0575,-0.405 2.1825,-0.405 1.2825,0 2.2725,0.405 0.99,0.405 1.6425,1.125 0.675,0.72 1.0125,1.71 0.3375,0.9675 0.3375,2.115 0,0.4499996 -0.0675,0.8774996 -0.045,0.405 -0.09,0.607501 l -7.605,0 q 0.2475,1.215 1.1025,1.7775 0.855,0.5625 2.2275,0.5625 0.765,0 1.44,-0.2025 0.6975,-0.2025 1.44,-0.585 l 1.1025,2.0025 q -0.9675,0.6075 -2.1375,0.9675 -1.17,0.3375 -2.295,0.3375 z m -0.27,-9.1800006 q -0.99,0 -1.665,0.5175 -0.652501,0.5175 -0.900001,1.575 l 4.77,0 q -0.2475,-2.0925 -2.205,-2.0925 z"/>
    <path style="fill:#ffffff;fill-opacity:1;stroke:none" d="m 87.449767,16.0425 q -1.3725,0 -2.61,-0.4725 -1.215,-0.495 -2.16,-1.44 -0.9225,-0.945 -1.485,-2.34 -0.54,-1.417501 -0.54,-3.2625006 0,-1.8225 0.54,-3.24 0.54,-1.44 1.485,-2.43 0.945,-0.99 2.2275,-1.5075 1.2825,-0.51750002 2.745,-0.51750002 1.395,0 2.52,0.58500002 1.125,0.5625 1.8675,1.2825 l -1.8225,2.0475 q -0.5175,-0.4725 -1.1475,-0.765 -0.6075,-0.2925 -1.4175,-0.2925 -0.7875,0 -1.44,0.3375 -0.6525,0.315 -1.1475,0.9225 -0.4725,0.6075 -0.7425,1.485 -0.27,0.8775 -0.27,1.98 0,2.2724996 1.035,3.5325006 1.035,1.2375 2.7,1.2375 0.7875,0 1.44,-0.36 0.675,-0.36 1.215,-0.945 l 1.8225,2.0025 q -1.8225,2.16 -4.815,2.16 z"/>
    <path style="fill:#ffffff;fill-opacity:1;stroke:none" d="m 99.680982,16.0425 q -1.102491,0 -2.137506,-0.3825 -1.0125,-0.405 -1.8225,-1.1475 -0.7875,-0.7425 -1.26,-1.8225 -0.4725,-1.1025 -0.4725,-2.497501 0,-1.3949996 0.4725,-2.4749996 0.4725,-1.1025 1.26,-1.845 0.81,-0.7425 1.8225,-1.125 1.035015,-0.405 2.137506,-0.405 1.102498,0 2.114998,0.405 1.035,0.3825 1.8225,1.125 0.81001,0.7425 1.28251,1.845 0.4725,1.08 0.4725,2.4749996 0,1.395001 -0.4725,2.497501 -0.4725,1.08 -1.28251,1.8225 -0.7875,0.7425 -1.8225,1.1475 -1.0125,0.3825 -2.114998,0.3825 z m 0,-2.6775 q 1.147498,0 1.709998,-0.855 0.585,-0.855 0.585,-2.317501 0,-1.4624996 -0.585,-2.3174996 -0.5625,-0.855 -1.709998,-0.855 -1.147491,0 -1.732501,0.855 -0.562505,0.855 -0.562505,2.3174996 0,1.462501 0.562505,2.317501 0.58501,0.855 1.732501,0.855 z"/>
    <path style="fill:#ffffff;fill-opacity:1;stroke:none" d="m 112.1822,16.0425 q -1.0575,0 -1.935,-0.405 -0.855,-0.405 -1.485,-1.1475 -0.6075,-0.765 -0.945,-1.845 -0.3375,-1.08 -0.3375,-2.452501 0,-1.3724996 0.405,-2.4524996 0.405,-1.08 1.0575,-1.8225 0.675,-0.765 1.53,-1.17 0.855,-0.405 1.7775,-0.405 0.945,0 1.5975,0.315 0.6525,0.2925 1.215,0.8775 l 0.09,0 -0.1575,-1.7325 0,-3.80250001957774 3.3075,0 0,15.77250061957774 -2.7,0 -0.2475,-1.1475 -0.0675,0 q -0.63,0.6075 -1.44,1.0125 -0.81,0.405 -1.665,0.405 z m 0.855,-2.7 q 0.5625,0 1.035,-0.225 0.4725,-0.2475 0.9225,-0.81 l 0,-4.5225006 q -0.45,-0.405 -0.9225,-0.5625 -0.45,-0.18 -0.945,-0.18 -0.9225,0 -1.5975,0.765 -0.6525,0.765 -0.6525,2.3399996 0,1.665001 0.5625,2.430001 0.5625,0.765 1.5975,0.765 z"/>
    <path style="fill:#ffffff;fill-opacity:1;stroke:none" d="m 127.33841,16.0425 q -1.305,0 -2.4525,-0.3825 -1.125,-0.405 -1.9575,-1.1475 -0.8325,-0.7425 -1.305,-1.8225 -0.4725,-1.1025 -0.4725,-2.497501 0,-1.3724996 0.4725,-2.4524996 0.495,-1.1025 1.305,-1.845 0.81,-0.765 1.845,-1.1475 1.0575,-0.405 2.1825,-0.405 1.2825,0 2.2725,0.405 0.99,0.405 1.6425,1.125 0.675,0.72 1.0125,1.71 0.3375,0.9675 0.3375,2.115 0,0.4499996 -0.0675,0.8774996 -0.045,0.405 -0.09,0.607501 l -7.605,0 q 0.2475,1.215 1.1025,1.7775 0.855,0.5625 2.2275,0.5625 0.765,0 1.44,-0.2025 0.6975,-0.2025 1.44,-0.585 l 1.1025,2.0025 q -0.9675,0.6075 -2.1375,0.9675 -1.17,0.3375 -2.295,0.3375 z m -0.27,-9.1800006 q -0.99,0 -1.665,0.5175 -0.6525,0.5175 -0.9,1.575 l 4.77,0 q -0.2475,-2.0925 -2.205,-2.0925 z"/>
</svg>
