<?xml version="1.0" encoding="UTF-8" standalone="no"?>
<!-- Created with Inkscape (http://www.inkscape.org/) -->

<svg
   xmlns:dc="http://purl.org/dc/elements/1.1/"
   xmlns:cc="http://creativecommons.org/ns#"
   xmlns:rdf="http://www.w3.org/1999/02/22-rdf-syntax-ns#"
   xmlns:svg="http://www.w3.org/2000/svg"
   xmlns="http://www.w3.org/2000/svg"
   xmlns:sodipodi="http://sodipodi.sourceforge.net/DTD/sodipodi-0.dtd"
   xmlns:inkscape="http://www.inkscape.org/namespaces/inkscape"
   width="37.315678mm"
   height="4.5275497mm"
   viewBox="0 0 132.22092 16.042499"
   id="svg2"
   version="1.1"
   inkscape:version="0.91 r13725"
   sodipodi:docname="chromecode-logo_text-only.svg">
  <defs
     id="defs4" />
  <sodipodi:namedview
     id="base"
     pagecolor="#000000"
     bordercolor="#666666"
     borderopacity="1.0"
     inkscape:pageopacity="0"
     inkscape:pageshadow="2"
     inkscape:zoom="4"
     inkscape:cx="10.273714"
     inkscape:cy="0.81654548"
     inkscape:document-units="px"
     inkscape:current-layer="layer1"
     showgrid="false"
     inkscape:window-width="1920"
     inkscape:window-height="1031"
     inkscape:window-x="54"
     inkscape:window-y="50"
     inkscape:window-maximized="0"
     fit-margin-top="0"
     fit-margin-left="0"
     fit-margin-right="0"
     fit-margin-bottom="0"
     showborder="true"
     inkscape:showpageshadow="false">
    <inkscape:grid
       type="xygrid"
       id="grid4142"
       originx="-280.31204"
       originy="-949.3869" />
  </sodipodi:namedview>
  <metadata
     id="metadata7">
    <rdf:RDF>
      <cc:Work
         rdf:about="">
        <dc:format>image/svg+xml</dc:format>
        <dc:type
           rdf:resource="http://purl.org/dc/dcmitype/StillImage" />
        <dc:title></dc:title>
      </cc:Work>
    </rdf:RDF>
  </metadata>
  <g
     inkscape:label="Layer 1"
     inkscape:groupmode="layer"
     id="layer1"
     transform="translate(-40.257503,-13.582849)">
    <path
       inkscape:connector-curvature="0"
       id="path4195"
       style="font-style:normal;font-variant:normal;font-weight:bold;font-stretch:normal;font-size:medium;line-height:125%;font-family:'Source Code Pro';-inkscape-font-specification:'Source Code Pro Bold';letter-spacing:0px;word-spacing:0px;fill:#ffffff;fill-opacity:1;stroke:none;stroke-width:1px;stroke-linecap:butt;stroke-linejoin:miter;stroke-opacity:1"
       d="m 46.467503,29.625348 q -1.3275,0 -2.4525,-0.3825 -1.125,-0.405 -1.98,-1.1475 -0.8325,-0.7425 -1.305,-1.8225 -0.4725,-1.1025 -0.4725,-2.497501 0,-1.395 0.5175,-2.475 0.54,-1.1025 1.4175,-1.845 0.9,-0.7425 2.07,-1.125 1.17,-0.405 2.4525,-0.405 1.3275,0 2.385,0.4275 1.08,0.4275 1.8,1.08 l -1.53,2.0475 q -1.2375,-0.8775 -2.475,-0.8775 -1.44,0 -2.34,0.855 -0.9,0.855 -0.9,2.3175 0,1.462501 0.855,2.317501 0.8775,0.855 2.2725,0.855 0.8775,0 1.5975,-0.315 0.7425,-0.315 1.35,-0.7425 l 1.3275,2.0925 q -1.0125,0.855 -2.2275,1.26 -1.215,0.3825 -2.3625,0.3825 z" />
    <path
       inkscape:connector-curvature="0"
       id="path4197"
       style="font-style:normal;font-variant:normal;font-weight:bold;font-stretch:normal;font-size:medium;line-height:125%;font-family:'Source Code Pro';-inkscape-font-specification:'Source Code Pro Bold';letter-spacing:0px;word-spacing:0px;fill:#ffffff;fill-opacity:1;stroke:none;stroke-width:1px;stroke-linecap:butt;stroke-linejoin:miter;stroke-opacity:1"
       d="m 53.861214,29.355348 0,-15.772501 3.3075,0 0,3.87 -0.18,2.1375 0.0675,0 q 0.63,-0.6525 1.53,-1.1475 0.9,-0.5175 2.1825,-0.5175 1.890001,0 2.745001,1.215 0.8775,1.215 0.8775,3.33 l 0,6.885001 -3.3075,0 0,-6.457501 q 0,-1.125 -0.360001,-1.6425 -0.36,-0.5175 -1.2825,-0.5175 -0.675,0 -1.1925,0.2925 -0.495,0.2925 -1.08,0.8775 l 0,7.447501 -3.3075,0 z" />
    <path
       inkscape:connector-curvature="0"
       id="path4199"
       style="font-style:normal;font-variant:normal;font-weight:bold;font-stretch:normal;font-size:medium;line-height:125%;font-family:'Source Code Pro';-inkscape-font-specification:'Source Code Pro Bold';letter-spacing:0px;word-spacing:0px;fill:#ffffff;fill-opacity:1;stroke:none;stroke-width:1px;stroke-linecap:butt;stroke-linejoin:miter;stroke-opacity:1"
       d="m 68.342426,29.355348 0,-11.160001 2.7,0 0.27,2.43 0.0675,0 q 0.8325,-1.3725 2.0025,-2.025 1.17,-0.675 2.520001,-0.675 0.7425,0 1.1925,0.1125 0.4725,0.1125 0.9675,0.3375 l -0.675,2.7675 q -0.5175,-0.1575 -0.945,-0.225 -0.405,-0.09 -1.035001,-0.09 -1.035,0 -2.0475,0.6075 -0.99,0.6075 -1.71,2.115 l 0,5.805001 -3.3075,0 z" />
    <path
       inkscape:connector-curvature="0"
       id="path4201"
       style="font-style:normal;font-variant:normal;font-weight:bold;font-stretch:normal;font-size:medium;line-height:125%;font-family:'Source Code Pro';-inkscape-font-specification:'Source Code Pro Bold';letter-spacing:0px;word-spacing:0px;fill:#ffffff;fill-opacity:1;stroke:none;stroke-width:1px;stroke-linecap:butt;stroke-linejoin:miter;stroke-opacity:1"
       d="m 85.973639,29.625348 q -1.1025,0 -2.1375,-0.3825 -1.0125,-0.405 -1.8225,-1.1475 -0.7875,-0.7425 -1.26,-1.8225 -0.4725,-1.1025 -0.4725,-2.497501 0,-1.395 0.4725,-2.475 0.4725,-1.1025 1.26,-1.845 0.81,-0.7425 1.8225,-1.125 1.035,-0.405 2.1375,-0.405 1.1025,0 2.115,0.405 1.035,0.3825 1.8225,1.125 0.81,0.7425 1.282501,1.845 0.4725,1.08 0.4725,2.475 0,1.395001 -0.4725,2.497501 -0.472501,1.08 -1.282501,1.8225 -0.7875,0.7425 -1.8225,1.1475 -1.0125,0.3825 -2.115,0.3825 z m 0,-2.6775 q 1.1475,0 1.71,-0.855 0.585,-0.855 0.585,-2.317501 0,-1.4625 -0.585,-2.3175 -0.5625,-0.855 -1.71,-0.855 -1.1475,0 -1.7325,0.855 -0.5625,0.855 -0.5625,2.3175 0,1.462501 0.5625,2.317501 0.585,0.855 1.7325,0.855 z" />
    <path
       inkscape:connector-curvature="0"
       id="path4203"
       style="font-style:normal;font-variant:normal;font-weight:bold;font-stretch:normal;font-size:medium;line-height:125%;font-family:'Source Code Pro';-inkscape-font-specification:'Source Code Pro Bold';letter-spacing:0px;word-spacing:0px;fill:#ffffff;fill-opacity:1;stroke:none;stroke-width:1px;stroke-linecap:butt;stroke-linejoin:miter;stroke-opacity:1"
       d="m 93.50235,29.355348 0,-11.160001 2.4975,0 0.225,1.3725 0.09,0 q 0.315,-0.675 0.8775,-1.1475 0.5625,-0.495 1.53,-0.495 0.72,0 1.215,0.4725 0.5175,0.45 0.72,1.35 0.315,-0.765 0.9,-1.2825 0.6075,-0.54 1.575,-0.54 1.215,0 1.845,0.9675 0.6525,0.945 0.6525,2.6325 l 0,7.830001 -3.15,0 0,-7.605001 q 0,-0.5175 -0.135,-0.765 -0.135,-0.2475 -0.4725,-0.2475 -0.315,0 -0.54,0.27 -0.225,0.27 -0.4725,0.81 l 0,7.537501 -2.5875,0 0,-7.605001 q 0,-1.0125 -0.63,-1.0125 -0.315,0 -0.54,0.27 -0.225,0.27 -0.45,0.81 l 0,7.537501 -3.15,0 z" />
    <path
       inkscape:connector-curvature="0"
       id="path4205"
       style="font-style:normal;font-variant:normal;font-weight:bold;font-stretch:normal;font-size:medium;line-height:125%;font-family:'Source Code Pro';-inkscape-font-specification:'Source Code Pro Bold';letter-spacing:0px;word-spacing:0px;fill:#ffffff;fill-opacity:1;stroke:none;stroke-width:1px;stroke-linecap:butt;stroke-linejoin:miter;stroke-opacity:1"
       d="m 113.63106,29.625348 q -1.305,0 -2.4525,-0.3825 -1.125,-0.405 -1.9575,-1.1475 -0.8325,-0.7425 -1.305,-1.8225 -0.4725,-1.1025 -0.4725,-2.497501 0,-1.3725 0.4725,-2.4525 0.495,-1.1025 1.305,-1.845 0.81,-0.765 1.845,-1.1475 1.0575,-0.405 2.1825,-0.405 1.2825,0 2.2725,0.405 0.99,0.405 1.6425,1.125 0.675,0.72 1.0125,1.71 0.3375,0.9675 0.3375,2.115 0,0.45 -0.0675,0.8775 -0.045,0.405 -0.09,0.607501 l -7.605,0 q 0.2475,1.215 1.1025,1.7775 0.855,0.5625 2.2275,0.5625 0.765,0 1.44,-0.2025 0.6975,-0.2025 1.44,-0.585 l 1.1025,2.0025 q -0.9675,0.6075 -2.1375,0.9675 -1.17,0.3375 -2.295,0.3375 z m -0.27,-9.180001 q -0.99,0 -1.665,0.5175 -0.6525,0.5175 -0.9,1.575 l 4.77,0 q -0.2475,-2.0925 -2.205,-2.0925 z" />
    <path
       inkscape:connector-curvature="0"
       id="path4207"
       style="font-style:normal;font-variant:normal;font-weight:bold;font-stretch:normal;font-size:medium;line-height:125%;font-family:'Source Code Pro';-inkscape-font-specification:'Source Code Pro Bold';letter-spacing:0px;word-spacing:0px;fill:#ffffff;fill-opacity:1;stroke:none;stroke-width:1px;stroke-linecap:butt;stroke-linejoin:miter;stroke-opacity:1"
       d="m 127.70727,29.625348 q -1.3725,0 -2.61,-0.4725 -1.215,-0.495 -2.16,-1.44 -0.9225,-0.945 -1.485,-2.34 -0.54,-1.417501 -0.54,-3.262501 0,-1.8225 0.54,-3.24 0.54,-1.44 1.485,-2.43 0.945,-0.99 2.2275,-1.5075 1.2825,-0.5175 2.745,-0.5175 1.395,0 2.52,0.585 1.125,0.5625 1.8675,1.2825 l -1.8225,2.0475 q -0.5175,-0.4725 -1.1475,-0.765 -0.6075,-0.2925 -1.4175,-0.2925 -0.7875,0 -1.44,0.3375 -0.6525,0.315 -1.1475,0.9225 -0.4725,0.6075 -0.7425,1.485 -0.27,0.8775 -0.27,1.98 0,2.2725 1.035,3.532501 1.035,1.2375 2.7,1.2375 0.7875,0 1.44,-0.36 0.675,-0.36 1.215,-0.945 l 1.8225,2.0025 q -1.8225,2.16 -4.815,2.16 z" />
    <path
       inkscape:connector-curvature="0"
       id="path4209"
       style="font-style:normal;font-variant:normal;font-weight:bold;font-stretch:normal;font-size:medium;line-height:125%;font-family:'Source Code Pro';-inkscape-font-specification:'Source Code Pro Bold';letter-spacing:0px;word-spacing:0px;fill:#ffffff;fill-opacity:1;stroke:none;stroke-width:1px;stroke-linecap:butt;stroke-linejoin:miter;stroke-opacity:1"
       d="m 139.93848,29.625348 q -1.10249,0 -2.1375,-0.3825 -1.0125,-0.405 -1.8225,-1.1475 -0.7875,-0.7425 -1.26,-1.8225 -0.4725,-1.1025 -0.4725,-2.497501 0,-1.395 0.4725,-2.475 0.4725,-1.1025 1.26,-1.845 0.81,-0.7425 1.8225,-1.125 1.03501,-0.405 2.1375,-0.405 1.1025,0 2.115,0.405 1.035,0.3825 1.8225,1.125 0.81001,0.7425 1.28251,1.845 0.4725,1.08 0.4725,2.475 0,1.395001 -0.4725,2.497501 -0.4725,1.08 -1.28251,1.8225 -0.7875,0.7425 -1.8225,1.1475 -1.0125,0.3825 -2.115,0.3825 z m 0,-2.6775 q 1.1475,0 1.71,-0.855 0.585,-0.855 0.585,-2.317501 0,-1.4625 -0.585,-2.3175 -0.5625,-0.855 -1.71,-0.855 -1.14749,0 -1.7325,0.855 -0.5625,0.855 -0.5625,2.3175 0,1.462501 0.5625,2.317501 0.58501,0.855 1.7325,0.855 z" />
    <path
       inkscape:connector-curvature="0"
       id="path4211"
       style="font-style:normal;font-variant:normal;font-weight:bold;font-stretch:normal;font-size:medium;line-height:125%;font-family:'Source Code Pro';-inkscape-font-specification:'Source Code Pro Bold';letter-spacing:0px;word-spacing:0px;fill:#ffffff;fill-opacity:1;stroke:none;stroke-width:1px;stroke-linecap:butt;stroke-linejoin:miter;stroke-opacity:1"
       d="m 152.4397,29.625348 q -1.0575,0 -1.935,-0.405 -0.855,-0.405 -1.485,-1.1475 -0.6075,-0.765 -0.945,-1.845 -0.3375,-1.08 -0.3375,-2.452501 0,-1.3725 0.405,-2.4525 0.405,-1.08 1.0575,-1.8225 0.675,-0.765 1.53,-1.17 0.855,-0.405 1.7775,-0.405 0.945,0 1.5975,0.315 0.6525,0.2925 1.215,0.8775 l 0.09,0 -0.1575,-1.7325 0,-3.8025 3.3075,0 0,15.772501 -2.7,0 -0.2475,-1.1475 -0.0675,0 q -0.63,0.6075 -1.44,1.0125 -0.81,0.405 -1.665,0.405 z m 0.855,-2.7 q 0.5625,0 1.035,-0.225 0.4725,-0.2475 0.9225,-0.81 l 0,-4.522501 q -0.45,-0.405 -0.9225,-0.5625 -0.45,-0.18 -0.945,-0.18 -0.9225,0 -1.5975,0.765 -0.6525,0.765 -0.6525,2.34 0,1.665001 0.5625,2.430001 0.5625,0.765 1.5975,0.765 z" />
    <path
       inkscape:connector-curvature="0"
       id="path4213"
       style="font-style:normal;font-variant:normal;font-weight:bold;font-stretch:normal;font-size:medium;line-height:125%;font-family:'Source Code Pro';-inkscape-font-specification:'Source Code Pro Bold';letter-spacing:0px;word-spacing:0px;fill:#ffffff;fill-opacity:1;stroke:none;stroke-width:1px;stroke-linecap:butt;stroke-linejoin:miter;stroke-opacity:1"
       d="m 167.59591,29.625348 q -1.305,0 -2.4525,-0.3825 -1.125,-0.405 -1.9575,-1.1475 -0.8325,-0.7425 -1.305,-1.8225 -0.4725,-1.1025 -0.4725,-2.497501 0,-1.3725 0.4725,-2.4525 0.495,-1.1025 1.305,-1.845 0.81,-0.765 1.845,-1.1475 1.0575,-0.405 2.1825,-0.405 1.2825,0 2.2725,0.405 0.99,0.405 1.6425,1.125 0.675,0.72 1.0125,1.71 0.3375,0.9675 0.3375,2.115 0,0.45 -0.0675,0.8775 -0.045,0.405 -0.09,0.607501 l -7.605,0 q 0.2475,1.215 1.1025,1.7775 0.855,0.5625 2.2275,0.5625 0.765,0 1.44,-0.2025 0.6975,-0.2025 1.44,-0.585 l 1.1025,2.0025 q -0.9675,0.6075 -2.1375,0.9675 -1.17,0.3375 -2.295,0.3375 z m -0.27,-9.180001 q -0.99,0 -1.665,0.5175 -0.6525,0.5175 -0.9,1.575 l 4.77,0 q -0.2475,-2.0925 -2.205,-2.0925 z" />
  </g>
</svg>
