<?xml version="1.0" encoding="UTF-8" standalone="no"?>
<svg
    xmlns:svg="http://www.w3.org/2000/svg"
    xmlns="http://www.w3.org/2000/svg"
    version="1.1"
    id="chromecodeLogoOnlyLogoRoot"
    viewBox="0 0 38.890885 35.355348">
  <rect
     style="fill:#57d6ef;fill-opacity:1;stroke:none"
     width="10"
     height="10"
     x="2.0710671"
     y="9.1421471"
     transform="rotate(45, 7.0710671000000005, 14.1421471)" />
  <rect
     style="fill:#57d6ef;fill-opacity:1;stroke:none"
     width="10"
     height="10"
     x="2.0710676"
     y="23.284283"
     transform="rotate(45, 7.0710676, 28.284283)" />
  <rect
     style="fill:#ba94f9;fill-opacity:1;stroke:none"
     width="5"
     height="5"
     x="15.17767"
     y="18.713215"
     transform="rotate(45, 17.67767, 21.213215)" />
  <rect
     style="fill:#ba94f9;fill-opacity:1;stroke:none"
     width="5"
     height="5"
     x="15.17768"
     y="11.642136"
     transform="rotate(45, 17.677680000000002, 14.142136)" />
  <rect
     style="fill:#57d6ef;fill-opacity:1;stroke:none"
     width="10"
     height="10"
     x="16.213203"
     y="23.284283"
     transform="rotate(45, 21.213203, 28.284283)" />
  <rect
     style="fill:#57d6ef;fill-opacity:1;stroke:none"
     width="10"
     height="10"
     x="16.213215"
     y="2.0710678"
     transform="rotate(45, 21.213215, 7.0710678)" />
  <rect
     style="fill:#57d6ef;fill-opacity:1;stroke:none"
     width="10"
     height="10"
     x="26.819817"
     y="12.67767"
     transform="rotate(45, 31.819817, 17.67767)" />
  <rect
     style="fill:#ba94f9;fill-opacity:1;stroke:none"
     width="5"
     height="5"
     x="29.319817"
     y="25.784271"
     transform="rotate(45, 31.819817, 28.284271)" />
  <rect
     style="fill:#ba94f9;fill-opacity:1;stroke:none"
     width="5"
     height="5"
     x="29.319817"
     y="4.5710678"
     transform="rotate(45, 31.819817, 7.0710678)" />
</svg>
