<?xml version="1.0" encoding="UTF-8" standalone="no"?>
<!-- From chromecode-logo_manually-monified.svg -->
<svg id="chromecodeLogoRoot" xmlns:svg="http://www.w3.org/2000/svg" xmlns="http://www.w3.org/2000/svg" version="1.1" viewBox="0 0 172.47842 35.355351">
  <rect style="fill:#57d6ef;fill-opacity:1;stroke:none" width="10" height="10" x="2.0710671" y="9.1421471" rx="0.3" ry="0.3" transform="rotate(45, 7.0710671000000005, 14.1421471)" />
  <rect style="fill:#57d6ef;fill-opacity:1;stroke:none" width="10" height="10" x="2.0710676" y="23.284283" rx="0.3" ry="0.3" transform="rotate(45, 7.0710676, 28.284283)" />
  <rect style="fill:#ba94f9;fill-opacity:1;stroke:none" width="5" height="5" x="15.17767" y="18.713215" rx="0.15" ry="0.15" transform="rotate(45, 17.67767, 21.213215)" />
  <rect style="fill:#ba94f9;fill-opacity:1;stroke:none" width="5" height="5" x="15.17768" y="11.642136" rx="0.15" ry="0.15" transform="rotate(45, 17.677680000000002, 14.142136)" />
  <rect style="fill:#57d6ef;fill-opacity:1;stroke:none" width="10" height="10" x="16.213203" y="23.284283" rx="0.3" ry="0.3" transform="rotate(45, 21.213203, 28.284283)" />
  <rect style="fill:#57d6ef;fill-opacity:1;stroke:none" width="10" height="10" x="16.213215" y="2.0710678" rx="0.3" ry="0.3" transform="rotate(45, 21.213215, 7.0710678)" />
  <rect style="fill:#57d6ef;fill-opacity:1;stroke:none" width="10" height="10" x="26.819817" y="12.67767" rx="0.3" ry="0.3" transform="rotate(45, 31.819817, 17.67767)" />
  <rect style="fill:#ba94f9;fill-opacity:1;stroke:none" width="5" height="5" x="29.319817" y="25.784271" rx="0.15" ry="0.15" transform="rotate(45, 31.819817, 28.284271)" />
  <rect style="fill:#ba94f9;fill-opacity:1;stroke:none" width="5" height="5" x="29.319817" y="4.5710678" rx="0.15" ry="0.15" transform="rotate(45, 31.819817, 7.0710678)" />
  <path style="fill:#ffffff;fill-opacity:1;stroke:none" d="m 46.467503,29.625348 q -1.3275,0 -2.4525,-0.3825 -1.125,-0.405 -1.98,-1.1475 -0.8325,-0.7425 -1.305,-1.8225 -0.4725,-1.1025 -0.4725,-2.497501 0,-1.395 0.5175,-2.475 0.54,-1.1025 1.4175,-1.845 0.9,-0.7425 2.07,-1.125 1.17,-0.405 2.4525,-0.405 1.3275,0 2.385,0.4275 1.08,0.4275 1.8,1.08 l -1.53,2.0475 q -1.2375,-0.8775 -2.475,-0.8775 -1.44,0 -2.34,0.855 -0.9,0.855 -0.9,2.3175 0,1.462501 0.855,2.317501 0.8775,0.855 2.2725,0.855 0.8775,0 1.5975,-0.315 0.7425,-0.315 1.35,-0.7425 l 1.3275,2.0925 q -1.0125,0.855 -2.2275,1.26 -1.215,0.3825 -2.3625,0.3825 z" />
  <path style="fill:#ffffff;fill-opacity:1;stroke:none" d="m 53.861214,29.355348 0,-15.772501 3.3075,0 0,3.87 -0.18,2.1375 0.0675,0 q 0.63,-0.6525 1.53,-1.1475 0.9,-0.5175 2.1825,-0.5175 1.890001,0 2.745001,1.215 0.8775,1.215 0.8775,3.33 l 0,6.885001 -3.3075,0 0,-6.457501 q 0,-1.125 -0.360001,-1.6425 -0.36,-0.5175 -1.2825,-0.5175 -0.675,0 -1.1925,0.2925 -0.495,0.2925 -1.08,0.8775 l 0,7.447501 -3.3075,0 z" />
  <path style="fill:#ffffff;fill-opacity:1;stroke:none" d="m 68.342426,29.355348 0,-11.160001 2.7,0 0.27,2.43 0.0675,0 q 0.8325,-1.3725 2.0025,-2.025 1.17,-0.675 2.520001,-0.675 0.7425,0 1.1925,0.1125 0.4725,0.1125 0.9675,0.3375 l -0.675,2.7675 q -0.5175,-0.1575 -0.945,-0.225 -0.405,-0.09 -1.035001,-0.09 -1.035,0 -2.0475,0.6075 -0.99,0.6075 -1.71,2.115 l 0,5.805001 -3.3075,0 z" />
  <path style="fill:#ffffff;fill-opacity:1;stroke:none" d="m 85.973639,29.625348 q -1.1025,0 -2.1375,-0.3825 -1.0125,-0.405 -1.8225,-1.1475 -0.7875,-0.7425 -1.26,-1.8225 -0.4725,-1.1025 -0.4725,-2.497501 0,-1.395 0.4725,-2.475 0.4725,-1.1025 1.26,-1.845 0.81,-0.7425 1.8225,-1.125 1.035,-0.405 2.1375,-0.405 1.1025,0 2.115,0.405 1.035,0.3825 1.8225,1.125 0.81,0.7425 1.282501,1.845 0.4725,1.08 0.4725,2.475 0,1.395001 -0.4725,2.497501 -0.472501,1.08 -1.282501,1.8225 -0.7875,0.7425 -1.8225,1.1475 -1.0125,0.3825 -2.115,0.3825 z m 0,-2.6775 q 1.1475,0 1.71,-0.855 0.585,-0.855 0.585,-2.317501 0,-1.4625 -0.585,-2.3175 -0.5625,-0.855 -1.71,-0.855 -1.1475,0 -1.7325,0.855 -0.5625,0.855 -0.5625,2.3175 0,1.462501 0.5625,2.317501 0.585,0.855 1.7325,0.855 z" />
  <path style="fill:#ffffff;fill-opacity:1;stroke:none" d="m 93.50235,29.355348 0,-11.160001 2.4975,0 0.225,1.3725 0.09,0 q 0.315,-0.675 0.8775,-1.1475 0.5625,-0.495 1.53,-0.495 0.72,0 1.215,0.4725 0.5175,0.45 0.72,1.35 0.315,-0.765 0.9,-1.2825 0.6075,-0.54 1.575,-0.54 1.215,0 1.845,0.9675 0.6525,0.945 0.6525,2.6325 l 0,7.830001 -3.15,0 0,-7.605001 q 0,-0.5175 -0.135,-0.765 -0.135,-0.2475 -0.4725,-0.2475 -0.315,0 -0.54,0.27 -0.225,0.27 -0.4725,0.81 l 0,7.537501 -2.5875,0 0,-7.605001 q 0,-1.0125 -0.63,-1.0125 -0.315,0 -0.54,0.27 -0.225,0.27 -0.45,0.81 l 0,7.537501 -3.15,0 z" />
  <path style="fill:#ffffff;fill-opacity:1;stroke:none" d="m 113.63106,29.625348 q -1.305,0 -2.4525,-0.3825 -1.125,-0.405 -1.9575,-1.1475 -0.8325,-0.7425 -1.305,-1.8225 -0.4725,-1.1025 -0.4725,-2.497501 0,-1.3725 0.4725,-2.4525 0.495,-1.1025 1.305,-1.845 0.81,-0.765 1.845,-1.1475 1.0575,-0.405 2.1825,-0.405 1.2825,0 2.2725,0.405 0.99,0.405 1.6425,1.125 0.675,0.72 1.0125,1.71 0.3375,0.9675 0.3375,2.115 0,0.45 -0.0675,0.8775 -0.045,0.405 -0.09,0.607501 l -7.605,0 q 0.2475,1.215 1.1025,1.7775 0.855,0.5625 2.2275,0.5625 0.765,0 1.44,-0.2025 0.6975,-0.2025 1.44,-0.585 l 1.1025,2.0025 q -0.9675,0.6075 -2.1375,0.9675 -1.17,0.3375 -2.295,0.3375 z m -0.27,-9.180001 q -0.99,0 -1.665,0.5175 -0.6525,0.5175 -0.9,1.575 l 4.77,0 q -0.2475,-2.0925 -2.205,-2.0925 z" />
  <path style="fill:#ffffff;fill-opacity:1;stroke:none" d="m 127.70727,29.625348 q -1.3725,0 -2.61,-0.4725 -1.215,-0.495 -2.16,-1.44 -0.9225,-0.945 -1.485,-2.34 -0.54,-1.417501 -0.54,-3.262501 0,-1.8225 0.54,-3.24 0.54,-1.44 1.485,-2.43 0.945,-0.99 2.2275,-1.5075 1.2825,-0.5175 2.745,-0.5175 1.395,0 2.52,0.585 1.125,0.5625 1.8675,1.2825 l -1.8225,2.0475 q -0.5175,-0.4725 -1.1475,-0.765 -0.6075,-0.2925 -1.4175,-0.2925 -0.7875,0 -1.44,0.3375 -0.6525,0.315 -1.1475,0.9225 -0.4725,0.6075 -0.7425,1.485 -0.27,0.8775 -0.27,1.98 0,2.2725 1.035,3.532501 1.035,1.2375 2.7,1.2375 0.7875,0 1.44,-0.36 0.675,-0.36 1.215,-0.945 l 1.8225,2.0025 q -1.8225,2.16 -4.815,2.16 z" />
  <path style="fill:#ffffff;fill-opacity:1;stroke:none" d="m 139.93848,29.625348 q -1.10249,0 -2.1375,-0.3825 -1.0125,-0.405 -1.8225,-1.1475 -0.7875,-0.7425 -1.26,-1.8225 -0.4725,-1.1025 -0.4725,-2.497501 0,-1.395 0.4725,-2.475 0.4725,-1.1025 1.26,-1.845 0.81,-0.7425 1.8225,-1.125 1.03501,-0.405 2.1375,-0.405 1.1025,0 2.115,0.405 1.035,0.3825 1.8225,1.125 0.81001,0.7425 1.28251,1.845 0.4725,1.08 0.4725,2.475 0,1.395001 -0.4725,2.497501 -0.4725,1.08 -1.28251,1.8225 -0.7875,0.7425 -1.8225,1.1475 -1.0125,0.3825 -2.115,0.3825 z m 0,-2.6775 q 1.1475,0 1.71,-0.855 0.585,-0.855 0.585,-2.317501 0,-1.4625 -0.585,-2.3175 -0.5625,-0.855 -1.71,-0.855 -1.14749,0 -1.7325,0.855 -0.5625,0.855 -0.5625,2.3175 0,1.462501 0.5625,2.317501 0.58501,0.855 1.7325,0.855 z" />
  <path style="fill:#ffffff;fill-opacity:1;stroke:none" d="m 152.4397,29.625348 q -1.0575,0 -1.935,-0.405 -0.855,-0.405 -1.485,-1.1475 -0.6075,-0.765 -0.945,-1.845 -0.3375,-1.08 -0.3375,-2.452501 0,-1.3725 0.405,-2.4525 0.405,-1.08 1.0575,-1.8225 0.675,-0.765 1.53,-1.17 0.855,-0.405 1.7775,-0.405 0.945,0 1.5975,0.315 0.6525,0.2925 1.215,0.8775 l 0.09,0 -0.1575,-1.7325 0,-3.8025 3.3075,0 0,15.772501 -2.7,0 -0.2475,-1.1475 -0.0675,0 q -0.63,0.6075 -1.44,1.0125 -0.81,0.405 -1.665,0.405 z m 0.855,-2.7 q 0.5625,0 1.035,-0.225 0.4725,-0.2475 0.9225,-0.81 l 0,-4.522501 q -0.45,-0.405 -0.9225,-0.5625 -0.45,-0.18 -0.945,-0.18 -0.9225,0 -1.5975,0.765 -0.6525,0.765 -0.6525,2.34 0,1.665001 0.5625,2.430001 0.5625,0.765 1.5975,0.765 z" />
  <path style="fill:#ffffff;fill-opacity:1;stroke:none" d="m 167.59591,29.625348 q -1.305,0 -2.4525,-0.3825 -1.125,-0.405 -1.9575,-1.1475 -0.8325,-0.7425 -1.305,-1.8225 -0.4725,-1.1025 -0.4725,-2.497501 0,-1.3725 0.4725,-2.4525 0.495,-1.1025 1.305,-1.845 0.81,-0.765 1.845,-1.1475 1.0575,-0.405 2.1825,-0.405 1.2825,0 2.2725,0.405 0.99,0.405 1.6425,1.125 0.675,0.72 1.0125,1.71 0.3375,0.9675 0.3375,2.115 0,0.45 -0.0675,0.8775 -0.045,0.405 -0.09,0.607501 l -7.605,0 q 0.2475,1.215 1.1025,1.7775 0.855,0.5625 2.2275,0.5625 0.765,0 1.44,-0.2025 0.6975,-0.2025 1.44,-0.585 l 1.1025,2.0025 q -0.9675,0.6075 -2.1375,0.9675 -1.17,0.3375 -2.295,0.3375 z m -0.27,-9.180001 q -0.99,0 -1.665,0.5175 -0.6525,0.5175 -0.9,1.575 l 4.77,0 q -0.2475,-2.0925 -2.205,-2.0925 z" />
</svg>
